<svg id="Capa_1" enable-background="new 0 0 512 512" height="512" viewBox="0 0 512 512" width="512" xmlns="http://www.w3.org/2000/svg"><g id="XMLID_1625_"><g id="XMLID_989_"><path id="XMLID_996_" d="m424.308 0h-354.308c-27.57 0-50 22.43-50 50v161c0 5.523 4.477 10 10 10s10-4.477 10-10v-161c0-16.542 13.458-30 30-30h222v103.5c0 4.044 2.436 7.691 6.173 9.239s8.038.691 10.898-2.167l24.929-24.93 24.929 24.929c1.913 1.913 4.471 2.929 7.073 2.929 1.288-.001 2.588-.249 3.825-.762 3.736-1.548 6.173-5.194 6.173-9.239v-103.499h6c16.542 0 30 13.458 30 30v412c0 16.542-13.458 30-30 30h-312c-16.542 0-30-13.458-30-30v-161c0-5.523-4.477-10-10-10s-10 4.477-10 10v161c0 27.57 22.43 50 50 50h354.308c37.326 0 67.692-30.367 67.692-67.693v-376.614c0-37.326-30.366-67.693-67.692-67.693zm-68.308 99.358-14.929-14.929c-1.953-1.953-4.511-2.929-7.071-2.929s-5.118.976-7.071 2.929l-14.929 14.929v-79.358h44zm116 344.949c0 26.298-21.395 47.693-47.692 47.693h-2.335c6.292-8.362 10.027-18.752 10.027-30v-412c0-11.248-3.735-21.638-10.027-30h2.335c26.297 0 47.692 21.395 47.692 47.693z"/><path id="XMLID_1012_" d="m231.481 156.216-23.566-40.819c-9.039-15.655-29.13-21.04-44.789-12.001l-8.266 4.772c-48.265 27.866-64.86 89.802-36.995 138.065l67.098 116.216c13.498 23.38 35.293 40.104 61.37 47.091 8.708 2.333 17.544 3.487 26.323 3.487 17.513 0 34.798-4.593 50.371-13.585l8.266-4.772c7.585-4.379 13.01-11.449 15.276-19.909 2.268-8.46 1.104-17.296-3.275-24.88l-23.317-40.388c-4.379-7.585-11.449-13.01-19.909-15.277-8.459-2.266-17.296-1.104-24.88 3.276l-25.137 14.513-55.707-96.488 25.137-14.513c15.656-9.039 21.04-29.131 12-44.788zm53.707 158.598c2.959-1.709 6.404-2.161 9.704-1.278 3.299.884 6.057 3 7.765 5.958l23.317 40.388c1.708 2.958 2.162 6.404 1.277 9.704-.884 3.299-3 6.057-5.958 7.765 0 0-13.306 7.499-15.897 8.655l-35.879-62.144zm-50.927 9.845c3.609 6.255 10.634 9.318 17.375 8.233l34.081 59.03c-11.249 1.865-22.863 1.341-34.208-1.699-20.916-5.604-38.399-19.019-49.226-37.772l-67.098-116.216c-17.328-30.013-13.209-66.609 7.551-91.961l34.312 59.429c-4.309 5.294-5.169 12.908-1.559 19.163zm-24.781-140.974-15.671 9.047-36.128-62.574c2.286-1.662 15.444-9.441 15.444-9.441 6.105-3.526 13.943-1.426 17.469 4.681l23.566 40.819c3.526 6.106 1.426 13.942-4.68 17.468z"/><path id="XMLID_1046_" d="m30 266c2.63 0 5.21-1.07 7.07-2.93s2.93-4.44 2.93-7.07-1.07-5.21-2.93-7.07-4.44-2.93-7.07-2.93-5.21 1.07-7.07 2.93-2.93 4.44-2.93 7.07 1.07 5.21 2.93 7.07 4.44 2.93 7.07 2.93z"/></g></g></svg>