<svg id="Capa_1" enable-background="new 0 0 512 512" height="512" viewBox="0 0 512 512" width="512" xmlns="http://www.w3.org/2000/svg">
	<g id="XMLID_989_">
		<path id="XMLID_996_" d="M 424.3 0 h -354.3 c -27.6 0 -50 22.4 -50 50 v 161 c 0 5.5 4.5 10 10 10 s 10 -4.5 10 -10 v -161 c 0 -16.5 13.5 -30 30 -30 h 222 v 103.5 c 0 4 2.4 7.7 6.2 9.2 s 8 0.7 10.9 -2.2 l 24.9 -24.9 l 24.9 24.9 c 1.9 1.9 4.5 2.9 7.1 2.9 c 1.3 0 2.6 -0.2 3.8 -0.8 c 3.7 -1.5 6.2 -5.2 6.2 -9.2 v -103.5 h 6 c 16.5 0 30 13.5 30 30 v 412 c 0 16.5 -13.5 30 -30 30 h -312 c -16.5 0 -30 -13.5 -30 -30 v -161 c 0 -5.5 -4.5 -10 -10 -10 s -10 4.5 -10 10 v 161 c 0 27.6 22.4 50 50 50 h 354.3 c 37.3 0 67.7 -30.4 67.7 -67.7 v -376.6 c 0 -37.3 -30.4 -67.7 -67.7 -67.7 z m -68.3 99.4 l -14.9 -14.9 c -2 -2 -4.5 -2.9 -7.1 -2.9 s -5.1 1 -7.1 2.9 l -14.9 14.9 v -79.4 h 44 z m 116 344.9 c 0 26.3 -21.4 47.7 -47.7 47.7 h -2.3 c 6.3 -8.4 10 -18.8 10 -30 v -412 c 0 -11.2 -3.7 -21.6 -10 -30 h 2.3 c 26.3 0 47.7 21.4 47.7 47.7 z" />
		<path id="XMLID_1046_" d="M 30 266 c 2.6 0 5.2 -1.1 7.1 -2.9 s 2.9 -4.4 2.9 -7.1 s -1.1 -5.2 -2.9 -7.1 s -4.4 -2.9 -7.1 -2.9 s -5.2 1.1 -7.1 2.9 s -2.9 4.4 -2.9 7.1 s 1.1 5.2 2.9 7.1 s 4.4 2.9 7.1 2.9 z" />
	</g>
	<g transform="matrix(1,0.2,-0.2,1,24.9,-26.1)">
		<path id="XMLID_1012_" d="M 194.5 126.1 l -23.6 -40.8 c -9 -15.7 -29.1 -21 -44.8 -12 l -8.3 4.8 c -48.3 27.9 -64.9 89.8 -37 138.1 l 67.1 116.2 c 13.5 23.4 35.3 40.1 61.4 47.1 c 8.7 2.3 17.5 3.5 26.3 3.5 c 17.5 0 34.8 -4.6 50.4 -13.6 l 8.3 -4.8 c 7.6 -4.4 13 -11.4 15.3 -19.9 c 2.3 -8.5 1.1 -17.3 -3.3 -24.9 l -23.3 -40.4 c -4.4 -7.6 -11.4 -13 -19.9 -15.3 c -8.5 -2.3 -17.3 -1.1 -24.9 3.3 l -25.1 14.5 l -55.7 -96.5 l 25.1 -14.5 c 15.7 -9 21 -29.1 12 -44.8 z m 53.7 158.6 c 3 -1.7 6.4 -2.2 9.7 -1.3 c 3.3 0.9 6.1 3 7.8 6 l 23.3 40.4 c 1.7 3 2.2 6.4 1.3 9.7 c -0.9 3.3 -3 6.1 -6 7.8 c 0 0 -13.3 7.5 -15.9 8.7 l -35.9 -62.1 z m -50.9 9.8 c 3.6 6.3 10.6 9.3 17.4 8.2 l 34.1 59 c -11.2 1.9 -22.9 1.3 -34.2 -1.7 c -20.9 -5.6 -38.4 -19 -49.2 -37.8 l -67.1 -116.2 c -17.3 -30 -13.2 -66.6 7.6 -92 l 34.3 59.4 c -4.3 5.3 -5.2 12.9 -1.6 19.2 z m -24.8 -141 l -15.7 9 l -36.1 -62.6 c 2.3 -1.7 15.4 -9.4 15.4 -9.4 c 6.1 -3.5 13.9 -1.4 17.5 4.7 l 23.6 40.8 c 3.5 6.1 1.4 13.9 -4.7 17.5 z" />
	</g>
	<g transform="matrix(0.1,0,0,-0.1,0,911)" fill="#000000" stroke="none">
		<path d="M 2963.1 5722 c -50 -134 -161 -429 -246 -657 c -86 -227 -156 -415 -156 -417 c 0 -2 94 -4 208 -4 l 209 0 l 12 43 c 7 23 22 72 33 110 l 20 67 l 231 -2 l 231 -3 l 34 -108 l 33 -107 l 212 2 c 134 2 211 7 210 13 c -2 14 -481 1284 -488 1295 c -4 6 -97 10 -229 10 l -223 0 l -91 -242 z m 388 -347 l 67 -221 l -143 0 l -143 0 l 9 28 c 5 15 34 110 65 212 c 69 229 64 214 71 207 c 3 -3 36 -105 74 -226 z" />
	</g>
	<g transform="matrix(0.1,0,0,-0.1,0,911)" fill="#000000" stroke="none">
		<path d="M 2734.1 7390 l 0 -140 l 327 -2 l 328 -3 l -368 -382 l -368 -383 l 3 -132 l 3 -133 l 628 -3 l 628 -2 l -3 142 l -3 143 l -376 5 l -376 5 l 363 379 l 364 379 l 0 133 l 0 134 l -575 0 l -575 0 l 0 -140 z" />
	</g>
</svg>
