<svg id="Layer_1" enable-background="new 0 0 512 512" height="512" viewBox="0 0 512 512" width="512" xmlns="http://www.w3.org/2000/svg">
	<g>
		<path d="M 34 450 v -344 h -16 v 344 c 0 22.1 17.9 40 40 40 h 184 v -16 h -184 c -13.2 0 -24 -10.8 -24 -24 z" />
		<path d="M 122 442 h 80 v 16 h -80 z" />
		<path d="M 50 162 c 0 4.4 3.6 8 8 8 h 8.7 c 1.7 4.7 6.1 8 11.3 8 s 9.6 -3.3 11.3 -8 h 17.4 c 1.7 4.7 6.1 8 11.3 8 s 9.6 -3.3 11.3 -8 h 8.7 c 4.4 0 8 -3.6 8 -8 v -24 c 0 -3 -1.7 -5.8 -4.4 -7.2 l -13.6 -6.8 l -6.8 -13.6 c -1.4 -2.7 -4.1 -4.4 -7.2 -4.4 h -32 c -3 0 -5.8 1.7 -7.2 4.4 l -6.8 13.6 l -13.6 6.8 c -2.7 1.4 -4.4 4.1 -4.4 7.2 z m 16 -19.1 l 11.6 -5.8 c 1.5 -0.8 2.8 -2 3.6 -3.6 l 5.8 -11.6 h 22.1 l 5.8 11.6 c 0.8 1.5 2 2.8 3.6 3.6 l 11.6 5.8 v 11.1 h -64 v -11.1 z" />
		<path d="M 242 98 v 10.6 l -11 -8.8 c -2.9 -2.3 -7.1 -2.3 -10 0 l -40 32 c -2.7 2.1 -3.7 5.7 -2.6 8.9 s 4.2 5.4 7.5 5.4 v 24 c 0 4.4 3.6 8 8 8 h 64 c 4.4 0 8 -3.6 8 -8 v -24 c 3.4 0 6.4 -2.1 7.5 -5.4 c 1.1 -3.2 0.1 -6.8 -2.6 -8.9 l -13 -10.4 v -23.4 z m 8 40 v 24 h -16 v -16 h -16 v 16 h -16 v -24 c 0 -0.8 -0.1 -1.6 -0.3 -2.3 l 24.3 -19.5 l 24.3 19.5 c -0.2 0.7 -0.3 1.5 -0.3 2.3 z" />
		<path d="M 257.6 228.6 l 5.3 -10.6 h 11.1 v -16 h -16 c -3 0 -5.8 1.7 -7.2 4.4 l -5.8 11.6 h -59 c -2.4 0 -4.7 1.1 -6.2 2.9 s -2.1 4.3 -1.7 6.6 l 8 40 c 0.3 1.4 1 2.7 1.9 3.8 c -1.3 1.9 -2 4.2 -2 6.7 c 0 6.6 5.4 12 12 12 s 12 -5.4 12 -12 c 0 -1.4 -0.3 -2.7 -0.7 -4 h 17.4 c -0.4 1.3 -0.7 2.6 -0.7 4 c 0 6.6 5.4 12 12 12 s 12 -5.4 12 -12 c 0 -2.5 -0.8 -4.8 -2 -6.7 c 0.9 -1 1.6 -2.3 1.9 -3.8 z m -17.4 5.4 l -4.8 24 h -34.9 l -4.8 -24 z" />
		<path d="M 50 346 c 0 4.4 3.6 8 8 8 h 8 v 40 c 0 4.4 3.6 8 8 8 s 8 -3.6 8 -8 v -8 h 40 v 8 c 0 4.4 3.6 8 8 8 s 8 -3.6 8 -8 v -19.1 l 4.4 2.2 l 7.2 -14.3 l -13.9 -7 c -3.8 -8.2 -12.1 -13.8 -21.7 -13.8 h -19 l -0.3 -2 c -1.4 -10.3 -10.3 -18 -20.7 -18 c -4.4 0 -8 3.6 -8 8 v 1.4 l -9.5 1.8 c -3.8 0.7 -6.5 4 -6.5 7.9 z m 32 9.3 c 1.5 1.7 3.6 2.7 6 2.7 h 26 c 4.4 0 8 3.6 8 8 v 4 h -40 z" />
		<path d="M 351.8 306.5 l -45.8 -51.5 v -205 c 0 -22.1 -17.9 -40 -40 -40 h -208 c -22.1 0 -40 17.9 -40 40 v 40 h 16 v -40 c 0 -13.2 10.8 -24 24 -24 h 208 c 13.2 0 24 10.8 24 24 v 208 v 76.7 l -26.1 -26.1 c -6.9 -6.9 -16 -10.6 -25.7 -10.6 c -20 0 -36.3 16.3 -36.3 36.3 c 0 9.7 3.8 18.8 10.6 25.7 l 2.1 2.1 h -12.6 v -16 h -16 v 24 c 0 4.4 3.6 8 8 8 h 19.1 l -10.2 20.4 l 14.3 7.2 l 13.7 -27.4 l 24.8 24.8 c -13 21.3 -14.3 47.7 -2.9 70.4 l 5.3 10.5 v 6.1 h 16 v -8 c 0 -1.2 -0.3 -2.5 -0.8 -3.6 l -6.1 -12.2 c -9.7 -19.3 -7.6 -42.1 5.4 -59.4 c 2.4 -3.2 2.1 -7.6 -0.7 -10.5 l -47.7 -47.7 c -3.8 -3.8 -5.9 -8.9 -5.9 -14.3 c 0 -11.2 9.1 -20.3 20.3 -20.3 c 5.4 0 10.5 2.1 14.3 5.9 l 39.7 39.7 l 24 24 l 11.3 -11.3 l -21.9 -21.7 v -71.7 l 33.9 38.1 c 9.1 10.3 14.1 23.5 14.1 37.2 v 135.7 h 16 v -135.7 c 0 -17.6 -6.5 -34.6 -18.2 -47.8 z" />
		<path d="M 50 58 h 16 v 16 h -16 z" />
		<path d="M 82 58 h 16 v 16 h -16 z" />
		<path d="M 114 58 h 16 v 16 h -16 z" />
		<path d="M 106 282 v -24 h 24 v -16 h -24 v -24 h -16 v 24 h -24 v 16 h 24 v 24 z" />
	</g>
	<g transform="matrix(0.1,0,0,-0.1,0,911)" fill="#000000" stroke="none">
		<path d="M 3853.1 7262 c -50 -134 -161 -429 -246 -657 c -86 -227 -156 -415 -156 -417 c 0 -2 94 -4 208 -4 l 209 0 l 12 43 c 7 23 22 72 33 110 l 20 67 l 231 -2 l 231 -3 l 34 -108 l 33 -107 l 212 2 c 134 2 211 7 210 13 c -2 14 -481 1284 -488 1295 c -4 6 -97 10 -229 10 l -223 0 l -91 -242 z m 388 -347 l 67 -221 l -143 0 l -143 0 l 9 28 c 5 15 34 110 65 212 c 69 229 64 214 71 207 c 3 -3 36 -105 74 -226 z" />
	</g>
	<g transform="matrix(0.1,0,0,-0.1,0,911)" fill="#000000" stroke="none">
		<path d="M 3624.1 8810 l 0 -140 l 327 -2 l 328 -3 l -368 -382 l -368 -383 l 3 -132 l 3 -133 l 628 -3 l 628 -2 l -3 142 l -3 143 l -376 5 l -376 5 l 363 379 l 364 379 l 0 133 l 0 134 l -575 0 l -575 0 l 0 -140 z" />
	</g>
</svg>
