<?xml version="1.0" encoding="iso-8859-1"?>
<!-- Generator: Adobe Illustrator 19.0.0, SVG Export Plug-In . SVG Version: 6.00 Build 0)  -->
<svg xmlns="http://www.w3.org/2000/svg" xmlns:xlink="http://www.w3.org/1999/xlink" version="1.1" id="Layer_1" x="0px" y="0px" viewBox="0 0 512 512" style="enable-background:new 0 0 512 512;" xml:space="preserve" width="512" height="512">
<g>
	<path d="M510.45,179.289c-1.419-1.85-3.619-2.934-5.95-2.934H296.081c-3.395,0-6.366,2.28-7.245,5.559L258.765,294.14   c-0.604,2.252-0.125,4.657,1.294,6.507c1.419,1.85,3.619,2.934,5.95,2.934h133.098l-4.572,17.064h-192.89l26.051-97.226H256   c4.142,0,7.5-3.358,7.5-7.5s-3.358-7.5-7.5-7.5h-34.058c-3.395,0-6.366,2.28-7.245,5.559l-30.071,112.226   c-0.604,2.252-0.125,4.657,1.294,6.507c1.419,1.85,3.619,2.934,5.95,2.934h208.419c3.395,0,6.366-2.28,7.245-5.559l7.102-26.505   h59.792c3.395,0,6.366-2.28,7.245-5.559l30.071-112.226C512.348,183.544,511.87,181.139,510.45,179.289z M301.835,191.355h88.681   l-2.556,9.538c-12.156,1.939-22.376,9.501-24.948,19.098c-4.817,17.982,11.859,24.086,19.875,27.02   c11.808,4.322,11.331,6.102,10.541,9.052c-1.049,3.917-8.509,8.469-16.554,8.469c-4.819,0-7.716-1.546-8.732-2.871   c-0.418-0.545-0.498-0.994-0.305-1.716c1.072-4.001-1.303-8.113-5.304-9.186c-3.999-1.07-8.113,1.303-9.186,5.304   c-1.403,5.238-0.375,10.469,2.894,14.73c2.604,3.393,6.428,5.896,11.025,7.335l-2.801,10.453h-88.68L301.835,191.355z    M468.674,288.581h-88.68l2.537-9.468c12.349-1.825,22.784-9.456,25.386-19.167c4.819-17.983-11.859-24.087-19.874-27.021   c-11.808-4.322-11.332-6.103-10.541-9.052c1.049-3.917,8.51-8.47,16.555-8.47c4.819,0,7.716,1.546,8.732,2.871   c0.418,0.545,0.498,0.994,0.305,1.716c-1.072,4.001,1.303,8.113,5.304,9.186c3.999,1.072,8.114-1.302,9.186-5.304   c1.403-5.238,0.375-10.469-2.894-14.73c-2.677-3.488-6.641-6.041-11.411-7.458l2.768-10.33h88.68L468.674,288.581z"/>
	<path d="M319.347,216.691c-4-1.067-8.113,1.302-9.186,5.303l-8.592,32.064c-1.072,4.001,1.302,8.114,5.303,9.186   c0.65,0.174,1.303,0.257,1.946,0.257c3.311,0,6.342-2.21,7.24-5.561l8.592-32.064C325.722,221.876,323.348,217.763,319.347,216.691   z"/>
	<path d="M451.163,263.245c0.65,0.174,1.303,0.257,1.946,0.257c3.311,0,6.342-2.21,7.24-5.561l8.592-32.064   c1.072-4.001-1.302-8.114-5.303-9.186c-4-1.067-8.114,1.302-9.186,5.303l-8.592,32.064   C444.788,258.06,447.162,262.172,451.163,263.245z"/>
	<path d="M236.022,254.059l-8.591,32.064c-1.072,4.001,1.303,8.113,5.304,9.186c0.65,0.174,1.303,0.257,1.946,0.257   c3.311,0,6.342-2.21,7.24-5.561l8.591-32.064c1.072-4.001-1.303-8.113-5.304-9.186C241.21,247.686,237.094,250.058,236.022,254.059   z"/>
	<path d="M127.742,191.355h136.274c4.142,0,7.5-3.358,7.5-7.5s-3.358-7.5-7.5-7.5H127.742c-4.142,0-7.5,3.358-7.5,7.5   S123.6,191.355,127.742,191.355z"/>
	<path d="M127.223,215.92c0-4.142-3.358-7.5-7.5-7.5H7.5c-4.142,0-7.5,3.358-7.5,7.5s3.358,7.5,7.5,7.5h112.223   C123.865,223.42,127.223,220.062,127.223,215.92z"/>
	<path d="M191.355,215.92c0-4.142-3.358-7.5-7.5-7.5h-32.064c-4.142,0-7.5,3.358-7.5,7.5s3.358,7.5,7.5,7.5h32.064   C187.997,223.42,191.355,220.062,191.355,215.92z"/>
	<path d="M175.839,240.484H63.613c-4.142,0-7.5,3.358-7.5,7.5s3.358,7.5,7.5,7.5h112.226c4.142,0,7.5-3.358,7.5-7.5   S179.981,240.484,175.839,240.484z"/>
	<path d="M175.839,272.548h-64.129c-4.142,0-7.5,3.358-7.5,7.5s3.358,7.5,7.5,7.5h64.129c4.142,0,7.5-3.358,7.5-7.5   S179.981,272.548,175.839,272.548z"/>
</g>















</svg>
