<?xml version="1.0" encoding="iso-8859-1"?>
<!-- Generator: Adobe Illustrator 17.1.0, SVG Export Plug-In . SVG Version: 6.00 Build 0)  -->
<!DOCTYPE svg PUBLIC "-//W3C//DTD SVG 1.1//EN" "http://www.w3.org/Graphics/SVG/1.1/DTD/svg11.dtd">
<svg version="1.1" id="Capa_1" xmlns="http://www.w3.org/2000/svg" xmlns:xlink="http://www.w3.org/1999/xlink" x="0px" y="0px"
	 viewBox="0 0 223.471 223.471" style="enable-background:new 0 0 223.471 223.471;" xml:space="preserve">
<g>
	<path style="fill:#000000;" d="M222.462,101.816c-9.169-15.845-21.914-29.824-36.856-40.427c-3.378-2.396-8.06-1.602-10.457,1.776
		c-2.397,3.378-1.602,8.06,1.776,10.457c12.004,8.518,22.403,19.504,30.28,31.952c-20.612,32.608-56.794,52.688-95.47,52.688
		c-4.142,0-7.5,3.358-7.5,7.5s3.358,7.5,7.5,7.5c45.477,0,87.905-24.498,110.727-63.933
		C223.807,107.005,223.807,104.14,222.462,101.816z"/>
	<path style="fill:#000000;" d="M111.735,150.093c24.549,0,44.521-19.972,44.521-44.521c0-3.248-0.353-6.492-1.049-9.642
		c-0.893-4.045-4.895-6.602-8.941-5.706c-4.045,0.893-6.599,4.896-5.706,8.941c0.461,2.089,0.695,4.245,0.695,6.407
		c0,16.278-13.243,29.521-29.521,29.521c-5.423,0-10.504-1.476-14.876-4.038L205.372,22.542c2.929-2.929,2.929-7.678,0-10.606
		c-2.929-2.929-7.678-2.929-10.606,0L86.253,120.449c-2.562-4.372-4.038-9.453-4.038-14.876c0-16.278,13.243-29.521,29.521-29.521
		c2.331,0,4.648,0.271,6.888,0.806c4.026,0.958,8.075-1.524,9.037-5.553c0.962-4.029-1.524-8.075-5.553-9.037
		c-3.38-0.807-6.87-1.216-10.372-1.216c-24.549,0-44.521,19.972-44.521,44.521c0,9.572,3.046,18.44,8.207,25.708l-14.764,14.764
		c-18.229-9.275-33.489-23.186-44.394-40.47c20.612-32.612,56.793-52.692,95.472-52.692c8.014,0,16.013,0.844,23.776,2.509
		c4.051,0.87,8.038-1.71,8.906-5.76c0.869-4.05-1.71-8.038-5.76-8.906c-8.795-1.887-17.853-2.843-26.922-2.843
		c-45.477,0-87.905,24.498-110.727,63.934c-1.345,2.324-1.345,5.189,0,7.513c11.653,20.138,28.369,36.548,48.565,47.799
		l-43.801,43.8c-2.929,2.929-2.929,7.678,0,10.606c1.464,1.464,3.384,2.197,5.303,2.197s3.839-0.732,5.303-2.197l69.648-69.648
		C93.296,147.047,102.164,150.093,111.735,150.093z"/>
</g>
<g>
</g>
<g>
</g>
<g>
</g>
<g>
</g>
<g>
</g>
<g>
</g>
<g>
</g>
<g>
</g>
<g>
</g>
<g>
</g>
<g>
</g>
<g>
</g>
<g>
</g>
<g>
</g>
<g>
</g>
</svg>
