<svg width="24" height="24" xmlns="http://www.w3.org/2000/svg">
 <g>
  <title>nolabel</title>
  <path id="svg_1" d="m17.63,5.84c-0.36,-0.51 -0.96,-0.84 -1.63,-0.84l-11,0.01c-1.1,0 -2,0.89 -2,1.99l0,10c0,1.1 0.9,1.99 2,1.99l11,0.01c0.67,0 1.27,-0.33 1.63,-0.84l4.37,-6.16l-4.37,-6.16zm-16,16c-0.384,-0.384 -0.384,-1.03 0,-1.414l17.089,-17.089c0.384,-0.384 1.03,-0.384 1.414,0l0,0c0.384,0.384 0.384,1.03 0,1.414l-17.089,17.089c-0.384,0.384 -1.03,0.384 -1.414,0l0,0z" fill-rule="evenodd" fill="#000"/>
 </g>

</svg>
