<svg height="512pt" viewBox="0 0 512 512" width="512pt" xmlns="http://www.w3.org/2000/svg"><path d="m187.734375 42.667969h-85.335937c-4.707032 0-8.53125-3.824219-8.53125-8.535157 0-4.710937 3.824218-8.53125 8.53125-8.53125h85.335937c4.710937 0 8.53125 3.820313 8.53125 8.53125 0 4.710938-3.820313 8.535157-8.53125 8.535157zm0 0"/><path d="m247.464844 42.667969h-8.53125c-4.710938 0-8.535156-3.824219-8.535156-8.535157 0-4.710937 3.824218-8.53125 8.535156-8.53125h8.53125c4.710937 0 8.535156 3.820313 8.535156 8.53125 0 4.710938-3.824219 8.535157-8.535156 8.535157zm0 0"/><path d="m155.65625 486.398438h-21.1875c-12.980469 0-23.535156-10.554688-23.535156-23.535157v-4.121093c0-12.976563 10.554687-23.542969 23.535156-23.542969h21.1875c12.980469 0 23.542969 10.566406 23.542969 23.542969v4.121093c0 12.980469-10.5625 23.535157-23.542969 23.535157zm-21.1875-34.132813c-3.566406 0-6.46875 2.902344-6.46875 6.476563v4.121093c0 3.570313 2.902344 6.46875 6.46875 6.46875h21.1875c3.574219 0 6.476562-2.898437 6.476562-6.46875v-4.121093c0-3.574219-2.902343-6.476563-6.476562-6.476563zm0 0"/><path d="m281.601562 426.667969h-273.066406c-4.710937 0-8.535156-3.824219-8.535156-8.535157v-358.398437c0-4.710937 3.824219-8.535156 8.535156-8.535156h273.066406c4.707032 0 8.53125 3.824219 8.53125 8.535156v128c0 4.710937-3.824218 8.53125-8.53125 8.53125-4.710937 0-8.535156-3.820313-8.535156-8.53125v-119.46875h-256v341.335937h256v-119.46875c0-4.710937 3.824219-8.53125 8.535156-8.53125 4.707032 0 8.53125 3.820313 8.53125 8.53125v128c0 4.710938-3.824218 8.535157-8.53125 8.535157zm0 0"/><path d="m259.285156 512h-228.4375c-17.007812 0-30.847656-13.839844-30.847656-30.847656v-63.019532c0-4.710937 3.824219-8.53125 8.535156-8.53125h273.066406c4.707032 0 8.53125 3.820313 8.53125 8.53125v63.019532c0 17.007812-13.839843 30.847656-30.847656 30.847656zm-242.21875-85.332031v54.484375c0 7.59375 6.1875 13.78125 13.78125 13.78125h228.445313c7.585937 0 13.773437-6.1875 13.773437-13.78125v-54.484375zm0 0"/><path d="m281.601562 68.265625h-273.066406c-4.710937 0-8.535156-3.820313-8.535156-8.53125v-28.886719c0-17.007812 13.839844-30.847656 30.847656-30.847656h228.445313c17 0 30.839843 13.839844 30.839843 30.847656v28.886719c0 4.710937-3.824218 8.53125-8.53125 8.53125zm-264.535156-17.066406h256v-20.351563c0-7.59375-6.1875-13.78125-13.78125-13.78125h-228.4375c-7.59375 0-13.78125 6.1875-13.78125 13.78125zm0 0"/><path d="m145.066406 332.800781c-51.753906 0-93.867187-42.113281-93.867187-93.867187s42.113281-93.867188 93.867187-93.867188 93.867188 42.113282 93.867188 93.867188-42.113282 93.867187-93.867188 93.867187zm0-170.667969c-42.34375 0-76.800781 34.457032-76.800781 76.800782s34.457031 76.800781 76.800781 76.800781 76.800782-34.457031 76.800782-76.800781-34.457032-76.800782-76.800782-76.800782zm0 0"/><path d="m145.066406 281.601562c-4.710937 0-8.53125-3.824218-8.53125-8.535156v-68.265625c0-4.710937 3.820313-8.535156 8.53125-8.535156 4.710938 0 8.535156 3.824219 8.535156 8.535156v68.265625c0 4.710938-3.824218 8.535156-8.535156 8.535156zm0 0"/><path d="m179.199219 247.464844h-68.265625c-4.710938 0-8.535156-3.820313-8.535156-8.53125 0-4.710938 3.824218-8.535156 8.535156-8.535156h68.265625c4.710937 0 8.535156 3.824218 8.535156 8.535156 0 4.710937-3.824219 8.53125-8.535156 8.53125zm0 0"/><path d="m469.332031 85.332031h-34.132812c-4.710938 0-8.53125-3.820312-8.53125-8.53125v-34.132812c0-4.710938 3.820312-8.535157 8.53125-8.535157h34.132812c4.710938 0 8.535157 3.824219 8.535157 8.535157v34.132812c0 4.710938-3.824219 8.53125-8.535157 8.53125zm-25.597656-17.066406h17.066406v-17.066406h-17.066406zm0 0"/><path d="m503.464844 119.464844h-102.398438c-4.710937 0-8.53125-3.820313-8.53125-8.53125v-102.398438c0-4.710937 3.820313-8.535156 8.53125-8.535156h102.398438c4.710937 0 8.535156 3.824219 8.535156 8.535156v102.398438c0 4.710937-3.824219 8.53125-8.535156 8.53125zm-93.863282-17.066406h85.332032v-85.332032h-85.332032zm0 0"/><path d="m469.332031 443.734375h-34.132812c-4.710938 0-8.53125-3.824219-8.53125-8.535156v-34.132813c0-4.710937 3.820312-8.53125 8.53125-8.53125h34.132812c4.710938 0 8.535157 3.820313 8.535157 8.53125v34.132813c0 4.710937-3.824219 8.535156-8.535157 8.535156zm-25.597656-17.066406h17.066406v-17.066407h-17.066406zm0 0"/><path d="m503.464844 477.867188h-102.398438c-4.710937 0-8.53125-3.824219-8.53125-8.535157v-102.398437c0-4.710938 3.820313-8.535156 8.53125-8.535156h102.398438c4.710937 0 8.535156 3.824218 8.535156 8.535156v102.398437c0 4.710938-3.824219 8.535157-8.535156 8.535157zm-93.863282-17.066407h85.332032v-85.335937h-85.332032zm0 0"/><path d="m469.332031 264.535156h-34.132812c-4.710938 0-8.53125-3.824218-8.53125-8.535156v-34.132812c0-4.710938 3.820312-8.535157 8.53125-8.535157h34.132812c4.710938 0 8.535157 3.824219 8.535157 8.535157v34.132812c0 4.710938-3.824219 8.535156-8.535157 8.535156zm-25.597656-17.070312h17.066406v-17.066406h-17.066406zm0 0"/><path d="m503.464844 298.667969h-102.398438c-4.710937 0-8.53125-3.824219-8.53125-8.535157v-102.398437c0-4.710937 3.820313-8.535156 8.53125-8.535156h102.398438c4.710937 0 8.535156 3.824219 8.535156 8.535156v102.398437c0 4.710938-3.824219 8.535157-8.535156 8.535157zm-93.863282-17.066407h85.332032v-85.335937h-85.332032zm0 0"/><path d="m196.273438 179.199219c-3.027344 0-5.964844-1.613281-7.507813-4.46875-2.242187-4.140625-.707031-9.320313 3.4375-11.566407l204.800781-110.929687c4.148438-2.253906 9.320313-.710937 11.5625 3.4375 2.246094 4.136719.710938 9.316406-3.4375 11.5625l-204.800781 110.933594c-1.289063.699219-2.679687 1.03125-4.054687 1.03125zm0 0"/><path d="m401.058594 426.667969c-1.375 0-2.765625-.335938-4.054688-1.035157l-204.800781-110.933593c-4.144531-2.242188-5.691406-7.421875-3.4375-11.5625 2.246094-4.144531 7.425781-5.683594 11.5625-3.4375l204.800781 110.933593c4.148438 2.242188 5.691406 7.421876 3.4375 11.5625-1.542968 2.859376-4.480468 4.472657-7.507812 4.472657zm0 0"/><path d="m401.066406 247.464844h-34.132812c-4.710938 0-8.535156-3.820313-8.535156-8.53125 0-4.710938 3.824218-8.535156 8.535156-8.535156h34.132812c4.710938 0 8.535156 3.824218 8.535156 8.535156 0 4.710937-3.824218 8.53125-8.535156 8.53125zm-68.265625 0h-34.132812c-4.710938 0-8.535157-3.820313-8.535157-8.53125 0-4.710938 3.824219-8.535156 8.535157-8.535156h34.132812c4.710938 0 8.53125 3.824218 8.53125 8.535156 0 4.710937-3.820312 8.53125-8.53125 8.53125zm-68.265625 0h-34.136718c-4.707032 0-8.53125-3.820313-8.53125-8.53125 0-4.710938 3.824218-8.535156 8.53125-8.535156h34.136718c4.707032 0 8.53125 3.824218 8.53125 8.535156 0 4.710937-3.824218 8.53125-8.53125 8.53125zm0 0"/></svg>