<svg id="Capa_1" enable-background="new 0 0 512 512" height="512" viewBox="0 0 512 512" width="512" xmlns="http://www.w3.org/2000/svg"><path d="m308.613 464h-92.803c-4.142 0-7.5 3.358-7.5 7.5s3.358 7.5 7.5 7.5h92.803c4.142 0 7.5-3.358 7.5-7.5s-3.358-7.5-7.5-7.5z"/><path d="m445 107.5h-33.29v-12c0-4.142-3.358-7.5-7.5-7.5s-7.5 3.358-7.5 7.5v12h-204.469c-4.142 0-7.5 3.358-7.5 7.5s3.358 7.5 7.5 7.5h249.259v147.258h-158.072c-4.307 0-8.216 2.374-10.203 6.195l-17.225 33.125-17.225-33.125c-1.987-3.821-5.896-6.195-10.203-6.195h-158.072v-147.258h89.555c4.142 0 7.5-3.358 7.5-7.5s-3.358-7.5-7.5-7.5h-32.345v-70c0-12.407 10.093-22.5 22.5-22.5h28.354v22.5c0 9.649 7.851 17.5 17.5 17.5h132c9.649 0 17.5-7.851 17.5-17.5v-22.5h28.646c12.407 0 22.5 10.093 22.5 22.5v26c0 4.142 3.358 7.5 7.5 7.5s7.5-3.358 7.5-7.5v-26c0-20.678-16.822-37.5-37.5-37.5h-224c-20.678 0-37.5 16.822-37.5 37.5v70h-45.71c-6.341 0-11.5 5.159-11.5 11.5v154.258c0 6.341 5.159 11.5 11.5 11.5h45.71v98.742c0 4.142 3.358 7.5 7.5 7.5s7.5-3.358 7.5-7.5v-98.742h98.737l21.125 40.625c1.641 3.157 4.871 5.118 8.428 5.118s6.787-1.961 8.428-5.117l21.125-40.625h111.157v147.741h-269v-16.07c0-4.142-3.358-7.5-7.5-7.5s-7.5 3.358-7.5 7.5v58.07c0 20.678 16.822 37.5 37.5 37.5h224c20.678 0 37.5-16.822 37.5-37.5v-34.345c.001-.052.002-.103.002-.155s-.001-.103-.002-.155v-155.087h33.29c6.341 0 11.5-5.159 11.5-11.5v-154.258c0-6.341-5.159-11.5-11.5-11.5zm-114.437-92.5v22.5c0 1.378-1.122 2.5-2.5 2.5h-132c-1.378 0-2.5-1.122-2.5-2.5v-22.5zm43.647 482h-224c-12.407 0-22.5-10.093-22.5-22.5v-27h269v27c0 12.407-10.093 22.5-22.5 22.5z"/><path d="m106.5 159v68c0 7.444 6.056 13.5 13.5 13.5h68c7.444 0 13.5-6.056 13.5-13.5v-68c0-7.444-6.056-13.5-13.5-13.5h-68c-7.444 0-13.5 6.056-13.5 13.5zm15 1.5h65v65h-65z"/><path d="m227 178.5h160c4.142 0 7.5-3.358 7.5-7.5s-3.358-7.5-7.5-7.5h-160c-4.142 0-7.5 3.358-7.5 7.5s3.358 7.5 7.5 7.5z"/><path d="m227 224.5h160c4.142 0 7.5-3.358 7.5-7.5s-3.358-7.5-7.5-7.5h-160c-4.142 0-7.5 3.358-7.5 7.5s3.358 7.5 7.5 7.5z"/></svg>