<svg id="Capa_1" enable-background="new 0 0 512 512" height="512" viewBox="0 0 512 512" width="512" xmlns="http://www.w3.org/2000/svg"><g><path d="m467 53.178h-82.961c-.013 0-.025-.002-.039-.002s-.025.002-.039.002h-338.961c-24.813 0-45 20.187-45 45v68c0 24.813 20.187 45 45 45h82.427c-6.507 14.399-10.132 30.368-10.132 47.169 0 63.362 51.549 114.911 114.911 114.911 16.983 0 33.115-3.707 47.636-10.349l54.594 88.771c2.833 4.605 7.753 7.144 12.792 7.144 2.68 0 5.393-.718 7.844-2.225 7.056-4.34 9.259-13.579 4.919-20.636l-54.725-88.983c25.545-21.094 41.853-52.995 41.853-88.633 0-16.801-3.625-32.77-10.133-47.169h130.014c24.813 0 45-20.187 45-45v-68c0-24.813-20.187-45-45-45zm-234.794 290.08c-46.82 0-84.911-38.091-84.911-84.911s38.091-84.912 84.911-84.912 84.912 38.092 84.912 84.912-38.092 84.911-84.912 84.911zm0-199.823c-33.688 0-64.035 14.572-85.073 37.743h-102.133c-8.271 0-15-6.729-15-15v-68c0-8.271 6.729-15 15-15h324v98h-51.721c-21.037-23.171-51.385-37.743-85.073-37.743zm249.794 22.743c0 8.271-6.729 15-15 15h-68v-98h68c8.271 0 15 6.729 15 15z"/></g></svg>