<?xml version="1.0" encoding="iso-8859-1"?>
<!-- Generator: Adobe Illustrator 19.0.0, SVG Export Plug-In . SVG Version: 6.00 Build 0) -->
<svg version="1.1" id="Layer_1" xmlns="http://www.w3.org/2000/svg" 
xmlns:xlink="http://www.w3.org/1999/xlink" x="0px" y="0px" 
viewBox="0 0 512 512" style="enable-background: new 0 0 512 512" xml:space="preserve">
	<g>
		<path transform="matrix(2,0,0,2.4,-115.1,-217)" d="M 197.8 253.2 c -6.4 0 -12.9 0.4 -19 1.3 l -54.3 -43.1 C 137.7 208.8 147.8 203.4 147.8 195.2 c 0 -9.7 -14.3 -15.6 -30.9 -17.4 L 173.4 121.2 l 0 0 C 174.2 121.2 175 121.2 175.8 121.2 c 15.4 0 32 -4.4 32 -14 S 191.2 93.2 175.8 93.2 S 143.8 97.6 143.8 107.2 c 0 7 8.7 11.2 19.4 13 L 106.1 177.2 C 106 177.2 105.9 177.2 105.8 177.2 c -20.9 0 -42 6.2 -42 18 s 21.1 18 42 18 c 2.6 0 5.2 -0.1 7.7 -0.3 l 54.9 43.6 C 154.2 260 143.8 266.3 143.8 275.2 c 0 14.4 27.2 22 54 22 s 54 -7.6 54 -22 S 224.6 253.2 197.8 253.2 z M 151.8 107.3 C 152.3 105.6 160.4 101.2 175.8 101.2 s 23.5 4.4 24 5.9 C 199.3 108.8 191.2 113.2 175.8 113.2 S 152.3 108.8 151.8 107.3 z M 105.8 205.2 c -21.1 0 -34 -6.5 -34 -10 s 12.9 -10 34 -10 s 34 6.5 34 10 S 126.9 205.2 105.8 205.2 z M 197.8 289.2 c -28.1 0 -46 -8.3 -46 -14 s 17.9 -14 46 -14 s 46 8.3 46 14 S 225.9 289.2 197.8 289.2 z" />
		<rect x="89.1" y="81.7" transform="matrix(-0.3,-2.4,2,-0.3,100.2,383)" width="16" height="8" />
		<rect x="225" y="41.1" transform="matrix(0.3,2.4,-2,0.3,296.4,-227.3)" width="16" height="8" />
		<rect x="179.9" y="-8.5" transform="matrix(0.3,2.4,-2,0.3,201,-261.5)" width="16" height="8" />
		<rect x="202.6" y="16.3" transform="matrix(0.3,2.4,-2,0.3,248.5,-244.6)" width="16" height="8" />
	</g>
	<g transform="matrix(0.1,0,0,-0.1,0,911)" fill="#000000" stroke="none">
		<path d="M 3673.1 8212 c -50 -134 -161 -429 -246 -657 c -86 -227 -156 -415 -156 -417 c 0 -2 94 -4 208 -4 l 209 0 l 12 43 c 7 23 22 72 33 110 l 20 67 l 231 -2 l 231 -3 l 34 -108 l 33 -107 l 212 2 c 134 2 211 7 210 13 c -2 14 -481 1284 -488 1295 c -4 6 -97 10 -229 10 l -223 0 l -91 -242 z m 388 -347 l 67 -221 l -143 0 l -143 0 l 9 28 c 5 15 34 110 65 212 c 69 229 64 214 71 207 c 3 -3 36 -105 74 -226 z" />
	</g>
	<g transform="matrix(0.1,0,0,-0.1,0,911)" fill="#000000" stroke="none">
		<path d="M 3414.1 6560 l 0 -140 l 327 -2 l 328 -3 l -368 -382 l -368 -383 l 3 -132 l 3 -133 l 628 -3 l 628 -2 l -3 142 l -3 143 l -376 5 l -376 5 l 363 379 l 364 379 l 0 133 l 0 134 l -575 0 l -575 0 l 0 -140 z" />
	</g>
</svg>
