<?xml version="1.0" encoding="iso-8859-1"?>
<!-- Generator: Adobe Illustrator 19.0.0, SVG Export Plug-In . SVG Version: 6.00 Build 0)  -->
<svg version="1.1" id="Layer_1" xmlns="http://www.w3.org/2000/svg" xmlns:xlink="http://www.w3.org/1999/xlink" x="0px" y="0px"
	 viewBox="0 0 204 204" style="enable-background:new 0 0 204 204;" xml:space="preserve">
<g>
	<g>
		<g>
			<path d="M142,160c-6.431,0-12.871,0.446-18.962,1.305l-54.289-43.057C81.888,115.646,92,110.173,92,102
				c0-9.71-14.272-15.608-30.939-17.404L117.656,28l-0.042-0.043C118.41,27.98,119.207,28,120,28c15.412,0,32-4.381,32-14
				S135.412,0,120,0S88,4.381,88,14c0,6.969,8.716,11.175,19.373,12.971L50.338,84.006C50.225,84.006,50.112,84,50,84
				c-20.871,0-42,6.184-42,18s21.129,18,42,18c2.585,0,5.174-0.096,7.726-0.285l54.927,43.562C98.39,166.785,88,173.073,88,182
				c0,14.443,27.166,22,54,22s54-7.557,54-22S168.834,160,142,160z M95.992,14.072C96.488,12.398,104.623,8,120,8
				s23.512,4.398,24.008,5.928C143.512,15.602,135.377,20,120,20S96.488,15.602,95.992,14.072z M50,112c-21.092,0-34-6.475-34-10
				s12.908-10,34-10s34,6.475,34,10S71.092,112,50,112z M142,196c-28.08,0-46-8.291-46-14s17.92-14,46-14s46,8.291,46,14
				S170.08,196,142,196z"/>
			
				<rect x="124.921" y="40.587" transform="matrix(-0.1066 -0.9943 0.9943 -0.1066 102.7592 181.5036)" width="16.001" height="7.998"/>
			
				<rect x="135.152" y="136.043" transform="matrix(0.1066 0.9943 -0.9943 0.1066 267.135 -17.2228)" width="15.999" height="7.998"/>
			
				<rect x="128.332" y="72.406" transform="matrix(0.1066 0.9943 -0.9943 0.1066 197.7683 -67.2941)" width="15.999" height="7.998"/>
			
				<rect x="131.742" y="104.224" transform="matrix(0.1066 0.9943 -0.9943 0.1066 232.4523 -42.2586)" width="15.999" height="7.998"/>
		</g>
	</g>
</g>
<g>
</g>
<g>
</g>
<g>
</g>
<g>
</g>
<g>
</g>
<g>
</g>
<g>
</g>
<g>
</g>
<g>
</g>
<g>
</g>
<g>
</g>
<g>
</g>
<g>
</g>
<g>
</g>
<g>
</g>
</svg>
